/* XPM */
static char *_3ff7112accb4e58fcde5f7ed4a0a947WBiEsoCicJ3bUWCj[] = {
/* columns rows colors chars-per-pixel */
"50 50 58 1 ",
"  c #060606",
". c #070707",
"X c #080806",
"o c #060608",
"O c #070709",
"+ c #07060B",
"@ c #08070C",
"# c gray3",
"$ c #090909",
"% c #0A0A08",
"& c #0B0B09",
"* c #08080A",
"= c #09090B",
"- c gray4",
"; c #0B0B0B",
": c #0C0C0A",
"> c #0D0D0B",
", c #09080D",
"< c #0A0A0C",
"1 c #0B0B0D",
"2 c #0A090E",
"3 c #0B0A0F",
"4 c #0C0C0C",
"5 c gray5",
"6 c #0E0E0C",
"7 c #0C0C0E",
"8 c #0D0D0F",
"9 c #0E0E0E",
"0 c gray6",
"q c #10100E",
"w c #0C0B10",
"e c #0D0C11",
"r c #0E0E10",
"t c #0F0F11",
"y c #0E0D12",
"u c #0F0E13",
"i c #100F14",
"p c #101010",
"a c #111111",
"s c #101012",
"d c #111113",
"f c gray7",
"g c #131313",
"h c #111015",
"j c #121214",
"k c #131315",
"l c #121116",
"z c #131217",
"x c gray8",
"c c #151515",
"v c #141416",
"b c #151517",
"n c #161616",
"m c #161618",
"M c #171719",
"N c #18181A",
"B c #1A1A1C",
"V c #1B1B1D",
/* pixels */
"88srrm88rsr8rjr8srrsbb8rsrrsrbr88ssrsssrrsrrjbr8sr",
"8ssssssrjjsbrbjssjrjjjr8s8ssrrj8sbqsjqbrjsssjbj8rs",
"sjrsrrjrsbssjrmssbsrsjjbjjsssrjssbssjsbbsjjrjsbjmj",
"bsrrrbsjmbsjjjbjssjjsbjjjbsrrjssbbbsjjjbjsjssjjbsx",
"sjjbrbbNNmbsmmssjjsbbjbrjjsbsrmmNmbssBssrjsjmmjs8b",
"bsbsrjbjsjrjj8jbsjjjrbrsmjjbssbbsbssbssbjjjjsjsrbb",
"rjjrsbssrjjss8rjjsjssbsjjrjr8brjssbss88sbsjjsjjsss",
"rr8rssrsbjbrsrsssrrbrssr<r88rssrjsbss8ssrs8jsssj88",
"sjrrjs8sjjjsrjsjs8sbsj8r8sj8sjrsjsjssrjsjr8bjbsi88",
"8js8ss88rjjsrbrsb<88jss=sss8ss888ssb8bs8br8rrsr488",
"<ss8j8888bsrsrb8srrs8888=8s88s888sb8s8ssrjrrr84<=8",
"8rr<<8r<<rrs8<r8sr88888888s8:88888888888rrrr<rr888",
"r<r888888jr8r8<888<888<8s8<r8r888ss8rr=88<888<88ss",
"<8ssO8r<rr88<<<<=s8<::88s=sj<<8<8s<88<<:<8r<4;<888",
"rrb88s8j88<<<<8888==8=<8x=jj<r8s8==8=<=:=8<<;8=:ss",
"8=8==<8<8<8r8<r<=8s88=8=8:=8<:8=8<888888<8rr8=:.:=",
";88<88X:8X=:;8&q===8:8s88;8:88==8<=8:8=8====q<s88=",
"8:i=@848:88===8=8=88==q88:88.848:Xr====8<8=s==8q88",
"=8s:8:s&=<8:=:8=8sqx:=8==;iq<=i:==8<:=8<:sqxq=<r:=",
"8q88:ss8Xq==r:88:s=:88:88q888sjq 88=:8:8=88=88r<8<",
"b<<iq;:=<:<=s8=8XO=X=8<=sx=8s=8==<<<=q:8====X:=<<m",
"=qs=8;8=@.8.:==8:r= :X<4:=s8888:<Xr =8X:=q8= 8=r8O",
":8888X;=4===X=8:r:<==<888:8=8=:<X:=:=X8888=X==::8<",
"<8:88.@=<<X:8X88@=O=8X<==88r8<X====Xs==8X=:====:=:",
"s8r8==:==X==X:==88==;88=8::r4======8 <8X4q=<<4r4=8",
"==s88s=X;:=88.=:q:;q48;;8=:s<j==X8X:s===rq=q484::=",
"X:8844:8=8:;<=@=;==8=4s8O=88r:::8X8:8OX=4=4=<=s88=",
"r8=8r84<=84@::= <=r<<4<8r8<=8:8;:88==88=<<<q=<<r88",
"8isq8s=8<4<4<<4<r8<8r8<4:q8s=s8==8=:==4<wi<4=s=<8:",
"8qs8==:88qr8<r<:4i=8q88448sq8:=88r8:=i<r=44=s8q888",
"==88s8=X:k8=@X=88;44qs88j=<8s8;=:js:==O44=<48qq<s:",
"8=s8q8q88;84r<i488====488<8s:48q:=8X884i<r84=<<8q8",
"q8sx8:xq<8=bss88qs=:8::8=s8xq8sx=8=qxqs::j8:8r88<8",
":s8888888srm888:<8=8ssq8s:888r88:sqb88:8=8<=8qs8q8",
"q8888:ri8s8r888888r8qq:bs88q:88s8888q888888r8s8qb8",
"8rs:r8srs8:r8sss88ir888j88s8888sqs=888iirrrs888sr8",
"88s<88jjrrrr8888sm8rsr8js8r888rbsrr8s8r8rbs<8sqrbs",
"88srrb88rsrrsbr:j8rsbbrss8qj8xs88s8rsssrss8sbbsrss",
"8ssrrsssbsrbsjjssjsssj8:sqss8sqsjjsjgrkrjsjrxsj=sr",
"sbqsrsjsjjssjiNssbsiskbbxxs8s8jssbj8brbmrbjsqqbbbs",
"bjssrjrbNbsjjbjbjssssbbssbsssssrmbbsjjjbbrjsjjjjsx",
"jrbj8bmmmbjjbmssjsjbbbjsbjsbssmbNbsjjBjjrbjjmmbsss",
"jsbsrbbsrssss8smsbsssb8sbsjb8jbbsssrj88bbjjjrjrrbb",
"rssrjjrssbbrsrrssrjssjsss8srrjssrbbsssrsssssssbjs8",
"rr8rjjrsjbjssrsjrs8b8s8s=r88sssrjbjsjrssrs8bjsss88",
"rmr8ss8sssjssjrbs8sbbbr88bb8sjr8ssjsrsjsm8rsjmss88",
"<jrrjs8<rbjssjsrj888888=s<s8ss888jjsrbsrjr88rrr<=8",
"<sj<s8888srss8brsss88888=8b88s88<sjrj8jssj8r8r<888",
"8r8r<8r8wrrr8<<rrr8=8sr8q888888888r8888<88r8:rr888",
"s=rr88<44ksrsr<r<<8r8=8rs88r8<<88rs8rr<888<8:888ss"
};
