/* XPM */
static char *_309466509cc40578e97ad8a3a26d013HtH2CUFpyoolKEN2[] = {
/* columns rows colors chars-per-pixel */
"55 46 212 2 ",
"   c None",
".  c #030201",
"X  c #0B0B0B",
"o  c #0A0602",
"O  c #110301",
"+  c #140801",
"@  c #1A0903",
"#  c #141414",
"$  c #1A1B1B",
"%  c #350905",
"&  c #261205",
"*  c #331C02",
"=  c #3A1D01",
"-  c #391A05",
";  c #241D11",
":  c #2E0C03",
">  c #3C2203",
",  c #3B2C02",
"<  c #372605",
"1  c #362A15",
"2  c #342812",
"3  c #1F1F20",
"4  c #29292A",
"5  c #252525",
"6  c #37312A",
"7  c #2D2E30",
"8  c #333334",
"9  c #3C3C3D",
"0  c #3A3836",
"q  c #550909",
"w  c #590909",
"e  c #451900",
"r  c #4C0707",
"t  c #750B0B",
"y  c #7D0D0D",
"u  c #472807",
"i  c #4A3907",
"p  c #583407",
"a  c #492511",
"s  c #562812",
"d  c #483916",
"f  c #5D2B0D",
"g  c #612E0E",
"h  c #763D00",
"j  c #753309",
"k  c #443726",
"l  c #433D39",
"z  c #1C740F",
"x  c #594400",
"c  c #59441F",
"v  c #654201",
"b  c #714800",
"n  c #785503",
"m  c #6D500C",
"M  c #786400",
"N  c #554527",
"B  c #494439",
"V  c #504733",
"C  c #6F4E2D",
"Z  c #74703C",
"A  c #3E3F41",
"S  c #3D4546",
"D  c #4A4A4A",
"F  c #474744",
"G  c #535353",
"H  c #5B5C5D",
"J  c #595856",
"K  c #504E4A",
"L  c #635C50",
"P  c #706450",
"I  c #5D5E60",
"U  c #626364",
"Y  c #6C6D6E",
"T  c #67686A",
"R  c #6E6F71",
"E  c #737374",
"W  c #7A7B7B",
"Q  c #777978",
"!  c #75726E",
"~  c #820E0E",
"^  c #8B0D0D",
"/  c #930E0E",
"(  c #9D1010",
")  c #A41212",
"_  c #B51111",
"`  c #873A05",
"'  c #943500",
"]  c #803B13",
"[  c #B23F00",
"{  c #A13A01",
"}  c #CC1313",
"|  c #DA1515",
" . c #E71717",
".. c #F91B1B",
"X. c #884909",
"o. c #845B07",
"O. c #935A04",
"+. c #984611",
"@. c #A54601",
"#. c #A85802",
"$. c #B85500",
"%. c #A74E1B",
"&. c #B4541D",
"*. c #886901",
"=. c #9B6600",
"-. c #9D7402",
";. c #816517",
":. c #A26B00",
">. c #A16200",
",. c #A97700",
"<. c #A87A00",
"1. c #B77B00",
"2. c #AD6A08",
"3. c #8F6D32",
"4. c #B57836",
"5. c #AB6F2E",
"6. c #C15A00",
"7. c #C96902",
"8. c #CD6B14",
"9. c #C67F34",
"0. c #C46A21",
"q. c #E56B21",
"w. c #EA7627",
"e. c #8E774E",
"r. c #139200",
"t. c #2CAD19",
"y. c #3C912E",
"u. c #3FB32E",
"i. c #48BA36",
"p. c #529547",
"a. c #6DCF5E",
"s. c #A68300",
"d. c #A98300",
"f. c #B68600",
"g. c #A99201",
"h. c #AF8111",
"j. c #B39201",
"k. c #CA8801",
"l. c #C89700",
"z. c #DC9801",
"x. c #C79D12",
"c. c #EB9600",
"v. c #E18900",
"b. c #CFA100",
"n. c #D6AB09",
"m. c #DDB100",
"M. c #CDB600",
"N. c #EEAA04",
"B. c #F1B804",
"V. c #D38436",
"C. c #E88A37",
"Z. c #F38733",
"A. c #E8963F",
"S. c #F28C35",
"D. c #E8C403",
"F. c #978C79",
"G. c #87857F",
"H. c #DB9F5B",
"J. c #E79847",
"K. c #F39E41",
"L. c #F19D4A",
"P. c #E19E54",
"I. c #F5A144",
"U. c #F6A54C",
"Y. c #F6AA56",
"T. c #EDA14D",
"R. c #E09A60",
"E. c #FAB365",
"W. c #E6A965",
"Q. c #E9D845",
"!. c #7E7F80",
"~. c #8C8C8D",
"^. c #848688",
"/. c #8D8F92",
"(. c #949596",
"). c #9A9B9D",
"_. c #96989A",
"`. c #8E9092",
"'. c #9B9EA1",
"]. c #98A3A5",
"[. c #A3A5A6",
"{. c #A4A7A9",
"}. c #A6A9AC",
"|. c #AAABAE",
" X c #A4A9A5",
".X c #ADAFB2",
"XX c #ACB0B3",
"oX c #B3B4B6",
"OX c #B5BABD",
"+X c #BBBCBE",
"@X c #B4B7B9",
"#X c #91CC84",
"$X c #B0C8AC",
"%X c #EBC59F",
"&X c #F8E483",
"*X c #BBBEC0",
"=X c #B8C3C6",
"-X c #C3C4C6",
";X c #C9CBCC",
":X c #C7C8C9",
">X c #CBCFD1",
",X c #CDD3D5",
"<X c #CED7D9",
"1X c #CCD5D7",
"2X c #D1DADC",
"3X c #DBDCDD",
"4X c #D1D4D6",
"5X c #DBDFE0",
"6X c #E3E4E5",
"7X c #E9EBEB",
"8X c #FDFEFE",
"9X c #F6F6F7",
/* pixels */
"                                                                                                              ",
"                                                                                                              ",
"                                                                                                              ",
"                                                    @ w y ~ r                                                 ",
"                                                w ) y ......                                                  ",
"                                            % ) ) ( ( }  . .                                                  ",
"                                          t ) ) ( / / _  ._                                                   ",
"                                        ^ ) ( ^ ~ ^ ^ / } /                                                   ",
"                                      y ) w i , <.*.= t } ^                                                   ",
"                                    @ ) : d.<.=.,.<.<.-.` O.                                                  ",
"                                    ~ q d.:.n n O.:.:.,.m.g.                                                  ",
"                                    ) x , ^.}.XX'.0 X.O.k.g.W .                                               ",
"                                  o ~ ; |.|.XXXX$X=X].v 2.j.1X;X.                                             ",
"                                  O % {.|..X*X*X=X=X>X X#.f.<X<X/.                                            ",
"                                  O E |.*X:X/.>X1X2X2X7XN 7.<X,X6X.                                           ",
"                                  . {.oX:X:XY >X,X2X2X5XXXk.,X,X>XA                                           ",
"                                  # |.-X=X}.8 c M n Q 2X2XF.1XF c T                                           ",
"                                  8 {.*Xx l.n.b.1.v.N.-. X,XZ &XN.=.          D ^.                            ",
"                                  F {._.l.n g %.%.&.p c.D.D.Q.a s O..       I Q 4X                            ",
"                                  A }._.k.< C.4.C F C 0.O.D.j 6 +.> .     9 E $X6X                            ",
"                                  8 {.|.f.> U.F.a.i.4.5.w.q.%.i.#X* .     ! Q 8X6X                            ",
"                                  3 {.*X-.u L.$Xz r.%XI.I.C.J.t.p.* .   # Q (.9X-X                            ",
"                                  X {.=Xb x Y.P y.p.R.S.K.9.A.e.C > .   G E 3X8X9                             ",
"                                    [.*X< f.3.Y.J.J.Y.U.I.A.4.A.V.h . . E E 9X8Xo                             ",
"                                    '.{.Q m M.M d E.Y.Y.I.0.0.V.j c.. 3 R ^.5X4X                              ",
"                                    a (. XOXR n z.W.E.Y.J.K.K.C.f n X G T :X2XG                               ",
"                                    e ' k _.}.1 7.H.Y.T.C.V.K.C.s +.. H I -X;XX                               ",
"                                      e @.=.i i 7.P.Y.U.K.K.K.w.- $.4 G U oX|.                                ",
"                                          > s.k.#.Z.S.Z.w.q.%.o . O o 2 k.).T                                 ",
"                                            . : ; I X D K D       ' . 6.x.4                                   ",
"                                          E 5X6 @. X@X7X6XH u   . @.@.#.n.o u                                 ",
"                                        * ` ^.H @._.[.5X7Xp m X o + . V u c.*                                 ",
"                                      # N N 6 ).{ ! [.;Xe.2.^.@X;.Y 8 5   b                                   ",
"                                      Y  X4 T _.e s ` 7.c #.. R C oXK 0                                       ",
"                                      j ;.$ I ^.s ' X.P 3.U   . 5 U _.#                                       ",
"                                    4 ;X-X. J Y (./.U e 1 ~.#     = 0                                         ",
"                                    Y 3X,XX 9 H (..XOX@.h.B 8     h                                           ",
"                                    5 ~.(.  8 ~.J o = l V d L                                                 ",
"                                            p J V > & V P i v                                                 ",
"                                          X 9 k d @ . & 2 P !                                                 ",
"                                          8 E {.W 5   G [.U ;.                                                ",
"                                          $ 0 $.N.N   G F 6.z.u                                               ",
"                                              o & o     .                                                     ",
"                                                                                                              ",
"                                                                                                              ",
"                                                                                                              "
};