/* XPM */
static char *_d6987edec1d4e97c9097ffc0ed76ff7f9sBs7LvxcLCj28G[] = {
/* columns rows colors chars-per-pixel */
"50 50 174 2 ",
"   c None",
".  c #AC7B00",
"X  c #AB7D00",
"o  c #AC7C00",
"O  c #AD7C00",
"+  c #AC7D00",
"@  c #AD7D00",
"#  c #AE7D00",
"$  c #AE7D01",
"%  c #AD7D02",
"&  c #AE7E02",
"*  c #AF7F04",
"=  c #AE7F05",
"-  c #AF8005",
";  c #AF8008",
":  c #AF810A",
">  c #B18000",
",  c #B38200",
"<  c #B18102",
"1  c #B28205",
"2  c #B3850B",
"3  c #B3850C",
"4  c #B4850C",
"5  c #B5870E",
"6  c #B48817",
"7  c #B88B13",
"8  c #BA8D17",
"9  c #BB8E17",
"0  c #B48919",
"q  c #BB8F18",
"w  c #BD901A",
"e  c #BD901B",
"r  c #BE901A",
"t  c #BE911C",
"y  c #BF931D",
"u  c #BC9531",
"i  c #BE9938",
"p  c #C48F00",
"a  c #CA9300",
"s  c #CC9500",
"d  c #C19318",
"f  c #E3A700",
"g  c #E7AB00",
"h  c #E9AC00",
"j  c #EEB000",
"k  c #EFB100",
"l  c #F3B400",
"z  c #F5B600",
"x  c #F6B700",
"c  c #F7B700",
"v  c #F8B800",
"b  c #F8B801",
"n  c #F8B802",
"m  c #F8B903",
"M  c #F8BA06",
"N  c #F8BA08",
"B  c #F8BB0A",
"V  c #F8BB0C",
"C  c #F8BC0E",
"Z  c #F8BC10",
"A  c #F8BD14",
"S  c #F8BE17",
"D  c #F8BF18",
"F  c #F8BF1B",
"G  c #C19622",
"H  c #CC9F27",
"J  c #C59B28",
"K  c #D3A62A",
"L  c #D0A42C",
"P  c #CCA333",
"I  c #F8C01E",
"U  c #F8C121",
"Y  c #F9C223",
"T  c #F8C226",
"R  c #F8C32A",
"E  c #F8C42F",
"W  c #F5C332",
"Q  c #F9C631",
"!  c #F8C532",
"~  c #F8C634",
"^  c #F8C736",
"/  c #F8C83C",
"(  c #C3A148",
")  c #D8B145",
"_  c #DAB449",
"`  c #C7A651",
"'  c #CCAF63",
"]  c #CEB167",
"[  c #D2B774",
"{  c #F8C941",
"}  c #F8CC49",
"|  c #F8CC4B",
" . c #F8CC4C",
".. c #F8CD4E",
"X. c #F9CE51",
"o. c #FACF51",
"O. c #F8CE54",
"+. c #F8CF57",
"@. c #F8D05A",
"#. c #F8D05D",
"$. c #F8D15D",
"%. c #F8D15E",
"&. c #E9C661",
"*. c #EDCB67",
"=. c #F1CF6C",
"-. c #F8D261",
";. c #F8D263",
":. c #F8D364",
">. c #F8D365",
",. c #F8D367",
"<. c #F2D16E",
"1. c #F8D46A",
"2. c #F8D56D",
"3. c #F8D56E",
"4. c #F8D66F",
"5. c #EECE71",
"6. c #F4D372",
"7. c #F6D574",
"8. c #F6D676",
"9. c #F7D676",
"0. c #F7D776",
"q. c #F8D670",
"w. c #F8D671",
"e. c #F8D774",
"r. c #F8D775",
"t. c #F8D776",
"y. c #F8D777",
"u. c #F8D876",
"i. c #F8D878",
"p. c #F8D879",
"a. c #DFCC9C",
"s. c #F8DB81",
"d. c #F9DB83",
"f. c #F9DF8F",
"g. c #F6DD91",
"h. c #F9E092",
"j. c #FAE196",
"k. c #FAE198",
"l. c #E4D5AE",
"z. c #E8DAB7",
"x. c #FBE7AB",
"c. c #FBE7AD",
"v. c #F1E1B5",
"b. c #FBE9B1",
"n. c #FBEAB6",
"m. c #FBEBBB",
"M. c #EDE2C7",
"N. c #EFE6CE",
"B. c #FCEDC1",
"V. c #FCEEC6",
"C. c #FCEFC6",
"Z. c #FCEFC9",
"A. c #FCF0CB",
"S. c #F3ECDA",
"D. c #FDF4D9",
"F. c #FDF5DD",
"G. c #F5EFE0",
"H. c #FDF6E1",
"J. c #FEF8E8",
"K. c #FEFAEF",
"L. c #FAF7F0",
"P. c #FBF8F2",
"I. c #FEFBF2",
"U. c #FBF9F4",
"Y. c #FCFAF5",
"T. c #FEFCF4",
"R. c #FDFCF9",
"E. c #FDFCFA",
"W. c #FEFDFB",
"Q. c #FFFEFB",
"!. c #FFFEFD",
"~. c #FFFEFE",
"^. c #FFFFFE",
"/. c white",
/* pixels */
"                                                                                                    ",
"                                                                                                    ",
"                                                                                                    ",
"                                                                                                    ",
"                                                                                                    ",
"                                        o o o o o o o o o o o o                                     ",
"                                        o o o o o o o o o o o o                                     ",
"                                o o o e 8.8.8.8.8.8.8.8.8.8.e o o o o o                             ",
"                                = o o t u.u.u.u.u.u.u.u.u.u.t o . o o o                             ",
"                            o o 8.i.i.$.v v v v v v v v v v %.i.i.8.o o o                           ",
"                            9 9 u.i.-.| v l h h h h h h l v  .-.i.y.q 7 o o                         ",
"                          . &.i.i.y.v v x a o o o o o o a v v v i.i.i.&.o o o                       ",
"                      . J ) <.i.~ ! v j a K ) ) ) ) ) ) K a j v ! ~ i.=._ d o . .                   ",
"                      o P i.i.i.v v v g . _ i.i.i.i.i.i._ . g v v v i.i.i.P o o o                   ",
"                      o P i.U V v x , d <.W V q.i.i.3.V W =.d , x v V U i.P o o o                   ",
"                      o P i.S v v x . t i.E v 3.i.i.3.v E i.e X x v v D i.P o o o                   ",
"                  o 0 /.C.u.I v o < i.%.v v v v v i.i.i.| v v v o o v S u.u.i.4 o o o               ",
"                  o 0 /.A.i.I v o o i.%.v v v v v q.q.i. .N v v o , v I i.u.i.4 o o o               ",
"                  o 0 /././.Q v o - i.%.v v v v v v B i.i.i.I v o o v S i.i.i.4 o o o               ",
"                  o 6 /././.! v o o i.,.R Z v v v v M  .%.i./ R o o v S i.i.i.4 o o o               ",
"                  o 0 /././.! v o , i.i.i.E v v v v v v E i.i.i., o v S i.i.i.3 o o #               ",
"                  o 0 /././.! v o = F.C.i.>.@.N v v v v V I ,.i.o - v S i.i.i.3 o o o               ",
"                  o 0 /././.Q v o - /.H.i.i.i.N v v v v v v @.i.o o v Z i.i.i.3 o o o               ",
"                  o 0 /././.Q v o - /./.Q.x.i.y.u.v v v v v M v - o v I i.i.i.4 o o #               ",
"                  o 0 /././.Q v o = /././.c.i.i.u.v v v v v v v # o v Z i.i.i.4 o o o               ",
"                  o 0 /././.! v o = /././././.d.i.i.3.v v v v v # # v I i.i.i.4 o o o               ",
"                  o 0 J.I./.! v o < /././././.k.h.i.q.S V v v v # o v S i.i.i.4 o o o               ",
"                  o 2 i.b./.! v o - /././././././.u.i.i.| v v v # # v S i.i.i.4 o o o               ",
"                  o 4 i.h.n.U v o - /././././././.B.m.i.-.{ V v o o v S i.i.i.4 o o o               ",
"                  o 3 i.u.u.I v o - /./././././././.T.i.i.i.F v o o v I i.i.i.4 o o #               ",
"                  o 4 i.u.i.S v o = /././././././././.K.B.i.3.1., o v S i.i.i.4 o o .               ",
"                  o 4 i.i.i.S v o = /./././././././././.A.i.i.i.o o v S i.i.i.4 o . #               ",
"                  o 3 i.i.u.D v o ; /./././././././././././.j.i.o X x D i.i.i.4 o o o               ",
"                  o 4 6.8.y.S v < < P.U././././././././././.g.6., , v D i.8.6.4 o o o               ",
"                      o P i.S v v x o i /./././././././././.i . x v v D i.P o o o                   ",
"                      o P i.~ T v v p H l.G././././././.G.l.] ` X.X.T ~ i.P o o o                   ",
"                      o P i.i.i.v v v g X a././././././.a.o M./././.i.i.i.P o o o                   ",
"                        q G *.i.O.O.v l f L ( ( ( ( ( ( [ z.L./././.F.v.G 4 o                       ",
"                          o &.i.u.y.v v x a . . o o o o ' /./././././.N.o o o                       ",
"                            < = y.u.y.@.v x x x x U.Y.Y.Q././././.E.; = o                           ",
"                            o o y.y.y.%.v v v v v /./././././././.Q.o o o                           ",
"                                o o o e i.i.i.i.i.u.d./././.i o . o o o                             ",
"                                o o o e *.*.*.*.*.*.5.S.S.S.u o . . o o                             ",
"                                        . o o o o o o o . . o o                                     ",
"                                                                                                    ",
"                                                                                                    ",
"                                                                                                    ",
"                                                                                                    ",
"                                                                                                    ",
"                                                                                                    "
};
