/* XPM */
static char *_d6c2e30bcfb417abfe78bcdfe41ea30XhHuuz6qQNqbgyJb[] = {
/* columns rows colors chars-per-pixel */
"50 50 245 2 ",
"   c None",
".  c #020305",
"X  c #050B06",
"o  c #090D06",
"O  c #050509",
"+  c #090909",
"@  c #170907",
"#  c #0B1307",
"$  c #0C1908",
"%  c #161A08",
"&  c #111216",
"*  c #230707",
"=  c #2B0907",
"-  c #270A07",
";  c #340C08",
":  c #3A0C08",
">  c #300907",
",  c #3D1109",
"<  c #35160A",
"1  c #281609",
"2  c #142309",
"3  c #192309",
"4  c #142C0B",
"5  c #1C2C09",
"6  c #1B340A",
"7  c #1C3B0B",
"8  c #16370B",
"9  c #0C2708",
"0  c #232509",
"q  c #252A0A",
"w  c #24340A",
"e  c #233D0B",
"r  c #2C3A0B",
"t  c #342E0B",
"y  c #430E08",
"u  c #451309",
"i  c #4C1409",
"p  c #4D1A0C",
"a  c #54150A",
"s  c #5C170A",
"d  c #531A0A",
"f  c #5C1A0A",
"g  c #5C1D11",
"h  c #641B0B",
"j  c #6C1E0B",
"k  c #62170A",
"l  c #731E0B",
"z  c #59240C",
"x  c #563B0C",
"c  c #482C0C",
"v  c #6B230C",
"b  c #66270D",
"n  c #73230B",
"m  c #7B260C",
"M  c #7C2A0C",
"N  c #73290D",
"B  c #6C2613",
"V  c #752A11",
"C  c #703614",
"Z  c #1C430B",
"A  c #24430B",
"S  c #2B450C",
"D  c #2B4C0C",
"F  c #254B0C",
"G  c #33440C",
"H  c #334B0C",
"J  c #3A4D0C",
"K  c #3A430C",
"L  c #29530C",
"P  c #34540D",
"I  c #3A580D",
"U  c #365010",
"Y  c #38640E",
"T  c #3E5F2B",
"R  c #44550D",
"E  c #445C0E",
"W  c #495A0E",
"Q  c #555A0E",
"!  c #4A4E0E",
"~  c #78490E",
"^  c #684E0E",
"/  c #4B630E",
"(  c #48680F",
")  c #55680F",
"_  c #4A740F",
"`  c #55710F",
"'  c #5B7510",
"]  c #5C7B10",
"[  c #567911",
"{  c #527211",
"}  c #766910",
"|  c #647B10",
" . c #7A7711",
".. c #636C10",
"X. c #6E4124",
"o. c #83260C",
"O. c #842C0D",
"+. c #8A2B0D",
"@. c #8B270D",
"#. c #942E0D",
"$. c #8C340D",
"%. c #86330D",
"&. c #94340D",
"*. c #9C340D",
"=. c #9C3B0E",
"-. c #943B0E",
";. c #862E11",
":. c #863914",
">. c #983B11",
",. c #A3350E",
"<. c #A43B0E",
"1. c #AA3B0F",
"2. c #A9360E",
"3. c #B13D0F",
"4. c #A43F11",
"5. c #9D440F",
"6. c #97450F",
"7. c #884618",
"8. c #974918",
"9. c #8A5812",
"0. c #A4430F",
"q. c #AB430F",
"w. c #A64B0F",
"e. c #B3430F",
"r. c #BC430F",
"t. c #A64C10",
"y. c #AC4C10",
"u. c #A94411",
"i. c #B74910",
"p. c #AC5311",
"a. c #A85815",
"s. c #B25511",
"d. c #B45C12",
"f. c #B95913",
"g. c #817912",
"h. c #977013",
"j. c #A96515",
"k. c #B96519",
"l. c #B17214",
"z. c #93532A",
"x. c #A65725",
"c. c #A25D35",
"v. c #B56722",
"b. c #A56432",
"n. c #C34B10",
"m. c #C94D10",
"M. c #C55A12",
"N. c #DC5812",
"B. c #D24E11",
"V. c #C46818",
"C. c #D76A15",
"Z. c #C87416",
"A. c #DA7816",
"S. c #E96713",
"D. c #E77A14",
"F. c #F57B15",
"G. c #F97715",
"H. c #F46C14",
"J. c #CB7528",
"K. c #E45D12",
"L. c #A97043",
"P. c #5A8911",
"I. c #5E9312",
"U. c #648411",
"Y. c #648B11",
"T. c #6B8C11",
"R. c #698511",
"E. c #778812",
"W. c #6D9212",
"Q. c #679913",
"!. c #749B13",
"~. c #779913",
"^. c #6CA213",
"/. c #6BA813",
"(. c #7CA413",
"). c #74AC14",
"_. c #79A814",
"`. c #7BB314",
"'. c #79B515",
"]. c #6A9033",
"[. c #9B8513",
"{. c #8E8D13",
"}. c #A28713",
"|. c #B79214",
" X c #84AB14",
".X c #8AAC14",
"XX c #82A514",
"oX c #83B414",
"OX c #83BC15",
"+X c #8CBA15",
"@X c #8BB315",
"#X c #93B815",
"$X c #99AB15",
"%X c #A4BB16",
"&X c #B7BA16",
"*X c #B5A916",
"=X c #8AB62C",
"-X c #D88918",
";X c #C59915",
":X c #D19115",
">X c #EB8515",
",X c #E88917",
"<X c #FB8415",
"1X c #FC8A16",
"2X c #F48516",
"3X c #EA9516",
"4X c #FC9416",
"5X c #FC9A17",
"6X c #FA9719",
"7X c #CFB217",
"8X c #F9A61B",
"9X c #EDB518",
"0X c #D5862B",
"qX c #EE972B",
"wX c #EB932B",
"eX c #F6A52A",
"rX c #F8B231",
"tX c #8CC216",
"yX c #89C616",
"uX c #96C716",
"iX c #A8C617",
"pX c #B8C817",
"aX c #BBD318",
"sX c #C8D518",
"dX c #D5CF19",
"fX c #E6C919",
"gX c #FBC81B",
"hX c #FCDA1E",
"jX c #FCD31C",
"kX c #FCDA21",
"lX c #FCD828",
"zX c #FCC928",
"xX c #FDEA34",
"cX c #FDF43C",
"vX c #FDE62F",
"bX c #99A57F",
"nX c #C9904D",
"mX c #C99963",
"MX c #CDA166",
"NX c #F6B348",
"BX c #BDD96A",
"VX c #FDF644",
"CX c #FDF649",
"ZX c #CEDC9B",
"AX c #D2E09A",
/* pixels */
"            ).I.^.Q.I.Q./.OX`.OX`.Y Z Z 6 6 4 L ).oXtXtX+X).@X X!.@X(.!.XX(._.( 7 2 2 9             ",
"        ^.=XBX=X`._.!._.OXtXOXtXuXuXP.L L L _ +XiXiXiXaXaXpXiX%X%XiXiX#X$XuXiXiXU.A D .XQ._         ",
"      I.AX).Q.).).I.I.^.).OXOX`.tXuXyXP.L _ +X%XiXiXsXaXsXaXsXpX&XpXiX$X%X%X%X#X#X] XXtXuX(.I       ",
"    I.AX/.Q./.`.)._.).`.'.`.yXtXtXOXOX+X[ #X%X%XiXpXsXsXdXdXdX&XsXdX&X&XpX&XiX%X%X) [ #X#X_.!.Y     ",
"  P.ZX^.Q./.'.^.^.`.).`.Q.x ^ ~ ~ 9.9.h.7.j.l.l.l.0X0X-X-XwX-X-XZ.C.V.s.p.l.sXsX{.H r E  X_. XY.F   ",
"  ].Q.Q./.'.^.'.`.'.OXOX_ i.&.0.q.M.C.D.qXeXeXeXNXNXrXrXrXrXrXeX8X4XF.S.D.Z.dXpXQ ! H H I #X XY.I   ",
"9 bXI.^.OX'./.'.'.OXyXyXY.i.-.@ u =.i.C.C.A.>X>XqX3X6X8X8X8XeX8X8X8X2XF.4XA.fX[. .Q ) J G P _.!.Y.Y ",
"4 T L ).OXOX^.`.tXyXtXyXP.q.=.= * , d b %.5.s.Z.-X9XgXkXvXcXcXVXCXCXjX1X8X>X;X}.{.....E S e A W.~.Y ",
"9 Z A L '.OX'.OX'.yX'.uXU.0.<.u d d z b N B V V O.%.;.>.,.4.1.e.3XcXkX4X5X2X7X|.{. .' W S e 8 A W.P ",
"4 7 Z 7 L '.yXyXOXOXyXuXT.q.0.i f f b M :.7.7.7.z.8.>.&.<.1.3.3.,XcXkX5X4X2X;X|.[. .) E P S A e e L ",
"4 8 8 A Z P oXtXOX'.tX+XY.q.q.b s v v b 7.x.c.b.c.8.o.;.4.i.r.3.,XcXkX5X4X<X7X;X[. .) E S A 6 w 4 # ",
"4 8 8 8 8 F ( '.oXoXoX+X..q.<.b f N :.M 7.6.8.x.7.8.>.8.u.,.r.n.,XcXkX5X4XF.3X|.h. .| ) H A A e e X ",
"4 8 7 Z Z Z Z _ +X+X@XXXw 2.<.V v O.$.$.p.k.j.v.v.5.6.$.&.,.3.n.,XcXkX5X4X<X:X;X}.E.| / P L A A 7 X ",
"4 7 7 Z 8 A A L P.+X!.I q *.2.v n $.6.6.V.v.v.v.j.a.6.-.>.*.3.r.,XcXkX5X4X1X:X;X}. .' / P P F e 7 X ",
"4 7 Z Z F F A F L Q.D I 0 =.2.N n &.t.5.V.v.v.k.v.p.8.6.*.,.3.n.>XVXhX5X1X2X:X|.[.{.| { I S Z A 7 X ",
"4 e A A 7 e 7 L P..X_ P 0 *.2.M m 6.a.p.Z.V.Z.k.k.d.t.0.*.,.n.3.,XcXhX5X1X<X-X|.h. .) / P D S A A X ",
"4 8 6 6 7 8 Z P._.@X#X/ % #.2.M M 5.p.p.Z.k.V.V.d.d.p.w.5.,.r.n.>XVXkX5X4X<X:X|.9.g.' J P S A r 7 X ",
"4 8 6 6 5 9 _ !.(.(. X.X0 &.2.O.%.w.a.t.V.V.d.k.d.d.s.s.w.,.r.r.>XVXhX5X4X<XA.|.}.g.../ I S r A 7 X ",
"4 e 6 5 6 [ ~.(. X`.(..XQ =.<.M %.t.p.w.f.V.s.k.d.d.d.s.q.<.r.n.,XVXkX4X4X<XZ.;Xh.g...R H S e A 7 F ",
"6 6 6 2 ( Q.(.(.XX.XXX.X) ,.2.O.$.w.s.w.d.f.s.f.d.d.s.y.y.1.r.n.>XVXhX5X4XF.Z.;X}.g...W J S S S ( I ",
"4 7 6 ( U.!.!..X@X(.(.(./ 2.2.O.%.5.p.0.d.s.p.s.s.s.y.w.i.,.n.n.>XVXkX5X1XF.Z.;X}.g...! K H S I W.P ",
"4 8 _ P.Y.W.(.XX.X`.(.XX) 1.<.O.$.5.w.=.s.y.0.y.s.y.q.y.e.,.n.m.>XCXhX5X1XH.:X;X}.} ) J J D J (.T.P ",
"6 ] T.Y.U.W.I.(.XX.X XXX) y.0.O.&.w.w.*.y.w.0.y.y.y.w.q.y.2.n.m.>XVXhX5X1XF.fX;Xh.} Q R H S W.~.W.D ",
"( R.W.R.T.~.T.W.!..X.X.X) i.1.O.-.w.w.=.q.q.=.<.y.y.0.q.e.e.n.m.>XCXhX4X1XF.fXfX}. .Q ! H W.(.R.| S ",
"[ ] T.W.T.T.Y.Y.!.XXXXXX) u.=.O.6.p.0.*.<.=.&.<.w.=.*.0.q.1.n.m.D.VXhX5X1XG.fXdX7X} Q r ] T.T.U.Y.e ",
"E ` U.R.W.] T.T.R.W.~.~.W 0.*.m &.5.5.-.&.&.@.*.=.*.&.,.1.1.r.m.D.CXhX6X1XF.9XfX7X}.! ! E.R.R.| ` w ",
"( { ' ` T.] U.R.R.T.~.~.W =.#.M M +.>.&.+.@.@.#.+.&.+.&.,.,.r.m.D.VXhX5X1XF.9XdX&X*X{.E.R.] ] ' ( 2 ",
"E { ' [ ] ] T.U.T.U.T.T.K &.&.n n M &.@.:.;.o.#.+.+.o.*.<.,.r.n.D.VXhX5X1XG.9X7X7X$X! K ) ' ) ( E 4 ",
"U E ) ` ] | P.T.U.U.R.W.R +.$.j j m %.O.f l l n l n m @.#.*.e.m.A.VXhX5X<XG.9XfX*X^ ! r 5 I R E E 2 ",
"w I J E ( { [ R.| [ U.U.K O.O.h j n 7.MXMXMXMXmXmXmXnXnX0XnXe.i.D.cXhX4X<XH.7X7Xh.^ ! q q 2 G R P $ ",
"# G J I E ( ` ' ' ' ] ` r o.o.f s h s n %.%.+.+.o.+.+.-.<.u.V.V.A.cXjX4X<XG.:X|.9.^ t r 3 3 2 r I % ",
"o # G W I E E ) ' { ( E 0 n N s a s n >.5.t.0.=.=.>.=.5.0.e.3.e.A.cXjX4X<XH.:Xj.9.^ t 0 2 % 2 2 w # ",
"o & # D K J E W / { W / 0 j l a s s z.L.L.L.L.L.c.c.c.c.x.x.3.3.A.VXjX1XF.H.f.j.~ ! t 0 % % 2 $ o X ",
"o X o $ G G J I I W E R 3 v v d a f g y g B B B B l m ;.;.@.3.2.C.VXjX1X<XH.M.j.9.x t 0 3 % $ # X . ",
"o X O o $ w w G J H G G % h h i y a k s g s k B B l h l o.@.,.2.A.cXjX1X<XH.s.a.C x t q % # # # # . ",
"O X X O X 2 5 w r r r S X f f u : y s a g s s k h h h l o.@.#.,.A.cXjX<X<XS.s.t.~ c < % # # o # X . ",
"O X O X O X % 5 q w w # . a s y : y a a a s k k k k h l o.@.,.,.A.cXgX1XG.H.f.5.C c < % # o o o X . ",
"O X X . X . X 3 2 5 # o . i a , : y i i a s s h k h h l m @.*.,.A.cXgX1XF.S.i.6.b c 1 % o X . . . . ",
"O . X X . X . o 3 # X X . u i : > : i y p s f s k h h j o.o.#.*.,XxXgX<XG.S.i.-.b t 1 o X X o . . . ",
"O . . . X . . X # . . . . ; u ; > : y y i a s f k s s j m o.#.*.-XvXgX1XG.S.i.6.b , 1 @ . o . . . . ",
". . . . O . . X o o . X . = : > = > : y i a a a s f s v N o.#.&.,XxXgX1XG.S.i.$.x , % @ . . . . . . ",
". . . . . . . o o o X . . = ; ; = > > : p i d s b g s j m m #.#.3XxX9X<XG.S.e.$.z < * + . . . . . . ",
". + . . . . X X X X X . . = ; = * = ; : y g g B V C :.7.6.8.+.$.3XvX9X<XG.K.3.$.z < @ X . . . . . . ",
"O & . . . X . . X X . X . * = * - - ; X.C C C B v v j n N m +.+.3XvX9XG.G.N.1.%.d < @ . . . . . . . ",
"  . O . . . . . . . . . . * = @ * = = ; u p f b v B m M M O.O.m 3XlX9XG.H.N.2.M d = @ O . . . . .   ",
"  . O . . . . . . . . . . @ = @ * = > : u d f h v v v N N v v j 3XzX8XG.S.N.2.m i = @ O . . . . .   ",
"    . . O . . . . . . . . @ * @ @ = ; u d z v M $.5.f.A.wX8XrXzXzXzX5XH.K.m.*.N u - @ . . . . .     ",
"      . O O O + + o + @ @ = : : p f N 0.f.N.C.D.D.D.D.>XF.D.2XF.2X2XH.N.B.r.>.V p < @ + . . .       ",
"        z z z.b.9.b.b.z.b.a.7.b.v.8.J.J.v.0XwX0XqXqXwXqXqXwXqXeXwXeXeXwX2XwXwX0XJ.v.c.z.d >         ",
"            c b C b C 7.:.x 7.7.C z.x.a.8.v.v.8.v.V.v.V.v.J.f.J.J.V.A.A.C.V.J.f.>.=.C b             "
};
