/* XPM */
static char *_a24261ca7554fc9aeb2770f003da45cKf3m6fd7G7oZfHZl[] = {
/* columns rows colors chars-per-pixel */
"50 50 90 1 ",
"  c #564233",
". c #5E4736",
"X c #674936",
"o c #694A36",
"O c #6C4F3B",
"+ c #6A513E",
"@ c #745139",
"# c #7A563C",
"$ c #7C593E",
"% c #625445",
"& c #6A5645",
"* c #6D5948",
"= c #725844",
"- c #7D5A41",
"; c #755C4A",
": c #7D624C",
"> c #7E6550",
", c #825F42",
"< c #856345",
"1 c #896346",
"2 c #83634C",
"3 c #8B654B",
"4 c #866A4F",
"5 c #8C694D",
"6 c #936C4D",
"7 c #95704E",
"8 c #846C54",
"9 c #8B6C52",
"0 c #946C51",
"q c #996E51",
"w c #877057",
"e c #8D7156",
"r c #877058",
"t c #8B745A",
"y c #8E785F",
"u c #937154",
"i c #9B7353",
"p c #9E7956",
"a c #927659",
"s c #9C7758",
"d c #94795C",
"f c #9C7C5C",
"g c #A07655",
"h c #A27A57",
"j c #A47C59",
"k c #A87F5B",
"l c #8E7961",
"z c #947D64",
"x c #9C7F60",
"c c #A5825D",
"v c #AB835D",
"b c #978065",
"n c #9C8264",
"m c #948168",
"M c #9C856A",
"N c #A48564",
"B c #AC8661",
"V c #A68867",
"C c #AE8963",
"Z c #A18769",
"A c #A38B6D",
"S c #AA8D6B",
"D c #B28C65",
"F c #B28E69",
"G c #AE916F",
"H c #B59067",
"J c #B5926B",
"K c #B9956E",
"L c #BA986F",
"P c #A58E71",
"I c #A88F70",
"U c #AB9273",
"Y c #AD9779",
"T c #AE987C",
"R c #B59672",
"E c #B99771",
"W c #B79976",
"Q c #BC9B74",
"! c #B69B7A",
"~ c #BE9E79",
"^ c #BFA07B",
"/ c #C09F79",
"( c #C1A27D",
") c #BEA482",
"_ c #C3A681",
"` c #C5A985",
"' c #C6AC89",
"] c #C8AE8B",
"[ c #C9B08E",
"{ c #CBB391",
/* pixels */
"Xo@<5ipccDJHHHJKL^~EHDDDKKQHDkgkBDCkjhhggii761<$@@",
" .+#<6ihcFKJJK~^(_((//~Q/(``/QHHKKDvjhigghhg661<,,",
"@$3ipcvDRW~~!^(_`]_(((QQ((`_///(_/EHHHCvvDHvcpp771",
"16pvDRL^_`_(^_`_]{{[`(((((((QQLQE/EKKJDvFHFvcccp66",
"4uanMMIUUTYTT!TTYYUUSSUUYYUISSUSIIIIIIIAPIPAZnnabe",
"<67cvDH^//~~)//QE~/Q~!(___```']]'___/QEQ^^^WEHvjpp",
"67ccCJJFDDJQQ~/EQQQ~~~/_]`_(~QQ~/_/Q/``)^^^^^JCcpp",
"16pcvvDvFFJEQ~EEKKQLQLLKEQQQEKEEE~/~~__`^^QEJGCNcp",
"6ijvFKEEQQEEQEEEQQQ~~EEFLQKCcjkhjBBkkkCCCBjhgiiq67",
"44waazzxznnnxzxmxnmMAMMznmMMMmmxxzzxxzzxxzzznnzzae",
"22<5ijcBFFJJFJKE~)_`]{{{{[[[{{{{{]]```''''__~ERFvc",
"60ipjDFRFFCNBBBDCCFE)'[{{{[{[[[[][]]''`'''`__(^(^^",
"qgghjDDHFKKKKQQ(_````'[[{{[[{{{[{{{{[]]''``_(QQQLR",
"qqiighvvDDFFDDDHE/__)'[[][[]]]]``'`'']`__~QEQEEKHD",
":>89eeee9adnZZnZZAZZAAPPPPPAAAZAAMMAZnAPAAnmxnxZMb",
"jvDJE~^`][_//__(]{[]'`___'`'_((///~//~QQQ/QQEJDDDH",
"vCJKQ/(_[{]]]]]]```/QQ/((_((((_`__(__`((((((//DDHK",
"qgcDDK/(_(((((~QE/QQLQ/(~(~^~!(__((_Q/QQQQQEEFDkvv",
"hkBFHKJFFKKQ/~(~Q~//(~((___(^^((_`_(_]{'_'_``/EFDD",
"33usjcNNSNVSGSVBNVVSSSSCCGGCNccvNSSCSJURUSVZVZjhii",
"cvDJEJFChgvQ//KLQ/(/(_[][''(___]''````_((////L/KKJ",
"qqiigkCDDDHQ((''{{{{{{[[[[[[[['[]```]]]]`_//KDDvvc",
"390iggjBDKHHDDDHH/E//((/Q(((QLLLLHDDHEQEHDBCvCvvvk",
"&**=**;2235ighkcvBDHHHKKLQ/(((~^//KK/``]{{{{[[](LK",
"%%*;;;;2359032:290jBCj09590ipBJ^]{{{{{{{{{{{{{{{{[",
"~~~/~~/~~^_``]]]]]]]]]]][[]][[]]`'_//~EEKEEKFkjhhi",
"^//____((``__``]'`__'{{{[]_'```__/)//~QE/QEJFBgqqh",
"W~W~Q~/(__((^^^_()_```_(_(_'`(^QEFCCCBBCCDDDkji023",
"``__`]]]]]]]`_````']]]'`][[{{[[]'``/Q)/___/EKBg0qi",
"DFFRFEEEJKEQ!Q~QQQ~~))~~)__)```(/WEJJE~EEJFDCkgq00",
"ssihBFFRKRRFJRRRWW^)))'))')['))))))__)_))))))))WER",
"qgggjBFJKKJKKQ~(`]]][{{[[{[]`````_`']`_//E//~(/~Q~",
"jBCFKJJChivQ(/QLQ^((('[]']``___]]``_(_((((Q//(/QKH",
"qqqsjvDFDFHQQ(_][{{{{{{[{[[[{[[[]`_`['['((QKDvvkkv",
"250iigjCHKHDDDHHKQQ^^Q^KLQ^^~LLQLKHDKL/KDCvvvcvvck",
"fdfffnZSIIIISAIUGAVccnncnnfffpnffffffnffcnNnxfauu9",
"BBDFEQE~((_(_(~/(/LQQ~^^^^^LLQLKKKJJKKDDBBvkBBvjgq",
"BjvDRQ/(//(]](~~(((KKKQ((``(((/Q~~~/((/QKKEQEFDkgi",
"BBDDE((__(((((_(('''_']][[''((((~~~~/(Q~///HDDvhi6",
"EEJK~((_''`'][]]``(___`]''`(((/((_^_(((``((/LKHDvc",
">wwwwwwwttttttyyylzzlzzlmzlzzmmmmzzzzyyzzdzttr88::",
"VFGEQ^_```''`]```]''''`'][[[{{[{{'``__/Dksss052,33",
"cvGJKEEQ~((_]]]``'````]]''][(EKQQKDDDJEFBhhjjjfsi7",
"GFJJEQ^^^(_]][]][{{{[]]][]]]']][`_/~QKJFDJJFBgiq73",
"VGJRQQ^^(````_]]]`'`[{{[['`_(~QEE~Q~EQQE~EWHCjq331",
">eettydnnnnxnnnMZMAASAAZMZZZZMNnxda9eeeaaatt982=++",
"MIR^^))_]]]'`]'_```]]][((Q(`]]''']]{[[]']`')!Gvp75",
"<<7asjcBDSDDDDHHHCCCHKL(((QQ^_(^~Q~/^^~ERRRJHCp71$",
"-<<7ccNSRR^^^GQLLJDDDDKL^LKJJFCCBBBCFFSCBNjhi6<-OX",
"<<4cVGU^^^^))^))'^^^^^^^(`^^^^^^WQE~WERFCBNccse<##"
};
